<svg xmlns="http://www.w3.org/2000/svg" id="Layer_1" viewBox="0 0 1510 260"><defs><style>.cls-1{fill:#132135;}</style></defs><path class="cls-1" d="m300.78,4.57c-4.93,0-8.76,1.64-10.95,4.38l-10.41,10.41c-33.41,33.96-79.97,53.13-128.17,53.13L38.96,7.85c-3.65-2.19-7.61-3.23-11.48-3.23-7.75,0-15.17,4.14-19.19,11.44-2.19,3.29-3.29,7.67-3.29,11.5v212.52c0,3.83,1.64,8.22,4.93,10.95,2.74,2.19,6.03,3.83,9.31,3.83h1.1c4.38,0,8.22-1.64,10.41-4.38l10.41-10.41c33.41-33.41,79.97-52.58,127.62-52.58l112.83,65.18c3.83,2.19,7.67,2.74,11.5,2.74,8.22,0,15.88-4.38,19.72-11.5,2.19-3.83,2.74-7.67,2.74-11.5V19.36c0-8.22-6.57-14.79-14.79-14.79Zm-17.33,18.82l10.41-10.41.22-.22.2-.25c1.14-1.43,3.51-2.24,6.5-2.24,5.1,0,9.09,3.99,9.09,9.09v88.19l-.13,14.54s-9.32,15.53-22.78,17.6c-13.46,2.07-31.66-7.23-31.66-7.23l-94.69-54.5c46.39-2.34,90.73-21.94,122.83-54.56ZM37.12,236.07l-10.41,10.41-.22.22-.2.25c-1.11,1.38-3.39,2.24-5.96,2.24h-1.1c-1.59,0-3.66-.93-5.7-2.55-1.96-1.66-2.84-4.48-2.84-6.54v-89.83l.03-12.1c1-2.64,6.4-15.48,18.46-19.19,13.46-4.14,27.82,4.2,27.82,4.2l102.29,58.88c-45.83,2.36-89.92,21.74-122.18,54.01Z"></path><path class="cls-1" d="m588.54,43.23v173h-10.4l-117.71-150.01v150.55h-12.59V43.23h10.95l117.71,150.55V43.23h12.04Z"></path><path class="cls-1" d="m768.65,205.28v11.5h-119.35V43.23h115.52v11.5h-103.47v67.89h91.97v11.5h-91.97v71.17h107.3Z"></path><path class="cls-1" d="m1061.55,43.23l-58.58,173h-13.14l-53.65-154.93-54.2,155.48h-13.14l-59.13-173.55h13.14l52.56,156.03,54.75-156.03h12.59l54.2,156.03,52.56-156.03h12.04Z"></path><path class="cls-1" d="m1106.99,43.23h12.59v173h-12.59V43.23Z"></path><path class="cls-1" d="m1232.91,54.72h-62.41v-11.5h137.41v11.5h-62.41v162.05h-12.59V54.72h0Z"></path><path class="cls-1" d="m1435.47,157.1v59.67h-12.59v-59.67l-70.08-113.87h13.69l62.96,101.83,62.41-101.83h13.14l-69.53,113.87Z"></path></svg>